<svg width="60" height="60" viewBox="0 0 60 60" fill="none" xmlns="http://www.w3.org/2000/svg">
<path d="M13.3008 36.2578L11.2148 44.0508L3.58594 44.2148C1.28906 39.9844 0 35.1445 0 30C0 25.0195 1.20703 20.332 3.35156 16.207L10.1484 17.4492L13.125 24.1992C12.5039 26.0156 12.1641 27.9609 12.1641 30C12.1641 32.2031 12.5625 34.3125 13.3008 36.2578Z" fill="#FBBB00"/>
<path d="M59.4727 24.3984C59.8125 26.2148 60 28.0898 60 30C60 32.1445 59.7773 34.2422 59.3437 36.2695C57.8789 43.1484 54.0703 49.1484 48.7852 53.4023L40.2305 52.9688L39.0234 45.4102C42.5273 43.3477 45.2695 40.1367 46.7109 36.2813H30.6562V24.3984H46.9336H59.4727Z" fill="#518EF8"/>
<path d="M48.7852 53.3906C43.6406 57.5273 37.1133 60 30 60C18.5742 60 8.63672 53.6133 3.57422 44.2148L13.3008 36.2578C15.832 43.0195 22.3594 47.8359 30 47.8359C33.2812 47.8359 36.3633 46.9453 39.0117 45.3984L48.7852 53.3906Z" fill="#28B446"/>
<path d="M49.1484 6.90234L39.4336 14.8594C36.7031 13.1484 33.4688 12.1641 30 12.1641C22.1836 12.1641 15.5391 17.2031 13.125 24.1992L3.35156 16.1953C8.34375 6.57422 18.4102 0 30 0C37.2773 0 43.957 2.58984 49.1484 6.90234Z" fill="#F14336"/>
</svg>
